<svg width="1920" height="836" viewBox="0 0 1920 836" fill="none" xmlns="http://www.w3.org/2000/svg">
<g clip-path="url(#clip0_23_17)">
<rect width="1920" height="836" fill="white"/>
<path d="M58.2363 -2.52734C12.5039 -2.52734 -16.3096 26.7988 -16.3096 74.0693C-16.3096 121.34 12.4014 150.563 58.2363 150.563C103.969 150.563 132.782 121.34 132.782 74.0693C132.782 26.7988 103.969 -2.52734 58.2363 -2.52734ZM58.2363 32.1309C76.3857 32.1309 88.4854 48.4346 88.4854 74.0693C88.4854 99.6016 76.4883 115.905 58.2363 115.905C39.9844 115.905 27.9873 99.6016 27.9873 74.0693C27.9873 48.4346 40.0869 32.1309 58.2363 32.1309ZM274.389 99.1914C274.389 70.583 251.317 52.2285 217.377 52.2285H195.229V34.4893H261.879V0.0361328H151.752V148H219.325C252.24 148 274.389 129.03 274.389 99.1914ZM195.229 115.188V82.8877H208.456C221.991 82.8877 230.092 88.3223 230.092 99.0889C230.092 109.753 221.991 115.188 208.764 115.188H195.229ZM361.752 -2.52734C316.02 -2.52734 287.206 26.7988 287.206 74.0693C287.206 121.34 315.917 150.563 361.752 150.563C407.484 150.563 436.298 121.34 436.298 74.0693C436.298 26.7988 407.484 -2.52734 361.752 -2.52734ZM361.752 32.1309C379.901 32.1309 392.001 48.4346 392.001 74.0693C392.001 99.6016 380.004 115.905 361.752 115.905C343.5 115.905 331.503 99.6016 331.503 74.0693C331.503 48.4346 343.603 32.1309 361.752 32.1309ZM662.704 148V0.0361328H612.46L579.442 86.374H578.622L545.502 0.0361328H495.258V148H533.197V62.2773H534.018L567.343 146.257H590.619L623.944 62.2773H624.765V148H662.704ZM824.408 148V0.0361328H780.932V56.2275H728.842V0.0361328H685.365V148H728.842V90.7832H780.932V148H824.408ZM951.352 113.444H890.443V89.6553H947.558V58.4834H890.443V34.5918H951.352V0.0361328H846.967V148H951.352V113.444Z" fill="#F5F5F5"/>
</g>
<defs>
<clipPath id="clip0_23_17">
<rect width="1920" height="836" fill="white"/>
</clipPath>
</defs>
</svg>
