<svg width="1920" height="1035" viewBox="0 0 1920 1035" fill="none" xmlns="http://www.w3.org/2000/svg">
<g clip-path="url(#clip0_9_285)">
<rect width="1920" height="1035" fill="white"/>
<path d="M-12.7207 0.0361328V148H30.7559V107.6H51.8789C86.4346 107.6 109.916 86.5791 109.916 53.9717C109.916 21.0566 87.7676 0.0361328 54.8525 0.0361328H-12.7207ZM30.7559 32.7461H43.2656C57.416 32.7461 66.0293 40.0264 66.0293 54.0742C66.0293 68.2246 57.416 75.5049 42.958 75.5049H30.7559V32.7461ZM210.814 148H257.162L208.866 0.0361328H154.315L106.02 148H150.316L158.007 118.571H203.124L210.814 148ZM180.155 34.1816H180.976L195.229 87.9121H165.902L180.155 34.1816ZM395.18 99.1914C395.18 70.583 372.108 52.2285 338.168 52.2285H316.02V34.4893H382.67V0.0361328H272.543V148H340.116C373.031 148 395.18 129.03 395.18 99.1914ZM316.02 115.188V82.8877H329.247C342.782 82.8877 350.883 88.3223 350.883 99.0889C350.883 109.753 342.782 115.188 329.555 115.188H316.02ZM482.543 -2.52734C436.811 -2.52734 407.997 26.7988 407.997 74.0693C407.997 121.34 436.708 150.563 482.543 150.563C528.275 150.563 557.089 121.34 557.089 74.0693C557.089 26.7988 528.275 -2.52734 482.543 -2.52734ZM482.543 32.1309C500.692 32.1309 512.792 48.4346 512.792 74.0693C512.792 99.6016 500.795 115.905 482.543 115.905C464.291 115.905 452.294 99.6016 452.294 74.0693C452.294 48.4346 464.394 32.1309 482.543 32.1309ZM650.81 148V34.5918H689.774V0.0361328H568.368V34.5918H607.333V148H650.81ZM706.693 148H774.267C807.182 148 829.33 127.8 829.33 96.1152C829.33 64.7383 805.849 44.5381 771.293 44.5381H750.17V0.0361328H706.693V148ZM750.17 115.188V76.7354H762.372C776.522 76.7354 785.033 83.1953 785.033 96.0127C785.033 108.728 776.625 115.188 762.68 115.188H750.17ZM885.521 148V0.0361328H842.045V148H885.521Z" fill="#F5F5F5"/>
</g>
<defs>
<clipPath id="clip0_9_285">
<rect width="1920" height="1035" fill="white"/>
</clipPath>
</defs>
</svg>
