<svg width="272" height="161" viewBox="0 0 272 161" fill="none" xmlns="http://www.w3.org/2000/svg">
<path d="M21.6516 155.299C3.52046 60.1111 -5.5451 23.2013 13.8811 43.275C33.3073 63.3488 53.1394 59.4427 63.5 57.5C80 54.4062 89.6432 12.1931 91.5859 51.6931C93.14 83.293 94.8236 135.657 95.4711 157.89" stroke="#F5F5F5" stroke-width="5" stroke-linecap="round"/>
<circle cx="3.34118" cy="3.34118" r="3.34118" transform="matrix(-1 0 0 1 42.5796 78.2422)" fill="#F5F5F5"/>
<circle cx="3.34118" cy="3.34118" r="3.34118" transform="matrix(-1 0 0 1 42.5796 78.2422)" fill="#F5F5F5"/>
<circle cx="3.34118" cy="3.34118" r="3.34118" transform="matrix(-1 0 0 1 42.5796 78.2422)" fill="#F5F5F5"/>
<circle cx="3.34118" cy="3.34118" r="3.34118" transform="matrix(-1 0 0 1 42.5796 78.2422)" fill="#F5F5F5"/>
<circle cx="3.34118" cy="3.34118" r="3.34118" transform="matrix(-1 0 0 1 66.4458 78.2422)" fill="#F5F5F5"/>
<circle cx="3.34118" cy="3.34118" r="3.34118" transform="matrix(-1 0 0 1 66.4458 78.2422)" fill="#F5F5F5"/>
<circle cx="3.34118" cy="3.34118" r="3.34118" transform="matrix(-1 0 0 1 66.4458 78.2422)" fill="#F5F5F5"/>
<circle cx="3.34118" cy="3.34118" r="3.34118" transform="matrix(-1 0 0 1 66.4458 78.2422)" fill="#F5F5F5"/>
<circle cx="3.34118" cy="3.34118" r="3.34118" transform="matrix(-1 0 0 1 59.4155 89.8979)" fill="#F5F5F5"/>
<circle cx="3.34118" cy="3.34118" r="3.34118" transform="matrix(-1 0 0 1 59.4155 89.8979)" fill="#F5F5F5"/>
<circle cx="3.34118" cy="3.34118" r="3.34118" transform="matrix(-1 0 0 1 59.4155 89.8979)" fill="#F5F5F5"/>
<circle cx="3.34118" cy="3.34118" r="3.34118" transform="matrix(-1 0 0 1 59.4155 89.8979)" fill="#F5F5F5"/>
<path d="M72.1597 88.6028L103.242 78.2422" stroke="#F5F5F5" stroke-width="5" stroke-linecap="round"/>
<path d="M70.8645 94.5359L99.0298 92.8122" stroke="#F5F5F5" stroke-width="5" stroke-linecap="round"/>
<path d="M38.4878 92.4881L19.7091 87.9553" stroke="#F5F5F5" stroke-width="5" stroke-linecap="round"/>
<path d="M39.7823 98.421L20.3562 103.496" stroke="#F5F5F5" stroke-width="5" stroke-linecap="round"/>
<path d="M144.272 51.0242L146.118 51.7953L144.272 51.0242ZM247.5 12.5L246.567 14.269L247.5 12.5ZM153.393 75.6209L152.015 77.0705L153.393 75.6209ZM127.597 69.1427C131.235 65.6955 134.716 63.6073 138.047 61.1735C141.322 58.7804 144.306 56.1306 146.118 51.7953L142.427 50.253C141.036 53.5817 138.756 55.7013 135.687 57.9437C132.674 60.1453 128.73 62.5585 124.846 66.239L127.597 69.1427ZM146.118 51.7953C153.994 32.9472 168.082 17.736 185.653 10.1517C203.176 2.58835 224.324 2.53662 246.567 14.269L248.433 10.731C225.176 -1.53671 202.759 -1.58842 184.068 6.47924C165.426 14.526 150.65 30.577 142.427 50.253L146.118 51.7953ZM246.567 14.269C259.478 21.0792 265.518 29.0081 267.279 36.8807C269.049 44.7969 266.606 53.1521 261.5 61.0138C256.4 68.8656 248.761 76.029 240.562 81.414C232.343 86.8127 223.746 90.3038 216.798 91.0104L217.202 94.9898C225.004 94.1964 234.216 90.3677 242.758 84.7573C251.321 79.1332 259.395 71.5981 264.855 63.1926C270.307 54.7969 273.269 45.336 271.182 36.0076C269.086 26.6357 262.008 17.8916 248.433 10.731L246.567 14.269ZM216.798 91.0104C187.808 93.9584 165.131 84.0199 154.771 74.1714L152.015 77.0705C163.317 87.8143 187.192 98.0418 217.202 94.9898L216.798 91.0104ZM154.771 74.1714C153.771 73.2205 152.37 72.6334 150.978 72.2293C149.542 71.8125 147.874 71.5245 146.137 71.3092C142.682 70.8811 138.632 70.7065 135.165 70.4753C133.404 70.3578 131.785 70.2261 130.4 70.0431C128.987 69.8564 127.946 69.6317 127.281 69.3745C126.466 69.0597 126.893 68.9773 126.988 69.546C127.072 70.0516 126.702 69.9904 127.597 69.1427L124.846 66.239C123.86 67.1732 122.765 68.5414 123.042 70.2035C123.33 71.9288 124.867 72.7301 125.839 73.1058C126.961 73.5392 128.386 73.8117 129.876 74.0086C131.395 74.2093 133.119 74.3477 134.898 74.4664C138.513 74.7074 142.34 74.8693 145.645 75.2788C147.287 75.4824 148.719 75.7386 149.863 76.0708C151.052 76.4158 151.712 76.7827 152.015 77.0705L154.771 74.1714Z" fill="#F5F5F5"/>
<path d="M167 53.3325C167.202 55.5598 167.743 57.815 168.071 60.0297C168.121 60.372 168.323 63.5317 168.323 61.4573" stroke="#F5F5F5" stroke-width="3" stroke-linecap="round"/>
<path d="M167.189 52.9547C167.381 54.2327 169.018 55.713 169.939 56.5132C170.295 56.8225 171.144 57.1912 171.64 57.101C172.781 56.8936 173.976 53.713 174.138 52.7238C174.187 52.4229 174.102 50.3657 174.191 51.0757C174.399 52.7441 175.578 54.5832 176.174 56.1458C176.502 57.004 176.783 58.8469 177.581 59.3789" stroke="#F5F5F5" stroke-width="3" stroke-linecap="round"/>
<path d="M180.227 51.4431C180.006 53.8736 180.384 57.6793 183.166 58.6231C185.668 59.472 188.878 57.0425 189.286 54.5293C189.798 51.3697 189.02 49.5183 185.885 48.5039C184.716 48.1259 183.352 47.7587 182.116 48.126C179.64 48.8622 180.445 52.517 180.605 54.2773" stroke="#F5F5F5" stroke-width="3" stroke-linecap="round"/>
<path d="M192.13 48.042C192.186 47.5952 192.503 48.8635 192.644 49.2911C193.424 51.652 194.14 54.0498 195.017 56.3767C195.289 57.1003 195.01 55.949 194.964 55.7888" stroke="#F5F5F5" stroke-width="3" stroke-linecap="round"/>
<path d="M192.13 47.853C193.13 47.7529 193.856 46.4495 194.775 46.3414C195.17 46.2949 195.551 46.1122 195.72 45.7745" stroke="#F5F5F5" stroke-width="3" stroke-linecap="round"/>
<path d="M199.688 45.7746C199.895 47.0179 201.389 48.6596 202.627 48.8817C204.183 49.1611 205.134 48.3771 205.713 46.9293C206.046 46.0973 206.242 45.3819 206.017 44.4835C205.882 43.942 206.714 46.1102 206.857 46.4464C207.662 48.3392 209.48 53.4119 207.14 54.9911C206.206 55.622 205.135 55.033 204.222 55.033" stroke="#F5F5F5" stroke-width="3" stroke-linecap="round"/>
<path d="M216.504 42.5625C216.81 45.0121 217.409 47.5204 217.869 49.9734C217.958 50.4516 218.204 52.8347 218.204 51.0651" stroke="#F5F5F5" stroke-width="3" stroke-linecap="round"/>
<path d="M216.504 42.3736C216.674 41.0114 218.755 42.2609 218.771 43.4023C218.781 44.1142 218.953 45.4464 218.477 46.0581C218.021 46.6447 218.113 46.3528 218.624 45.9636C220.968 44.1802 223.662 45.7185 224.167 48.4199C224.451 49.9388 223.89 51.4497 222.456 52.0834C221.742 52.3988 220.444 52.9747 220.283 52.0099" stroke="#F5F5F5" stroke-width="3" stroke-linecap="round"/>
<path d="M230.108 41.9956C230.033 41.3947 228.888 42.4724 228.597 43.0033C227.184 45.5792 226.332 48.2889 229.048 50.0994C229.723 50.5495 233.509 51.6024 233.509 50.4982" stroke="#F5F5F5" stroke-width="3" stroke-linecap="round"/>
<path d="M234.832 41.2399C234.857 41.4656 235.006 41.609 235.104 41.8067C235.662 42.922 235.752 44.553 235.986 45.7536C236.067 46.1652 236.104 49.8083 236.836 49.921C238.071 50.1109 239.288 49.7646 240.468 49.4696C241.196 49.2878 241.823 49.3993 241.823 48.6088" stroke="#F5F5F5" stroke-width="3" stroke-linecap="round"/>
<path d="M235.777 45.0188C236.473 45.0188 239.424 44.7264 238.989 44.0741" stroke="#F5F5F5" stroke-width="3" stroke-linecap="round"/>
<path d="M234.832 40.4841C235.82 40.4841 237.16 40.7371 238.044 40.2952" stroke="#F5F5F5" stroke-width="3" stroke-linecap="round"/>
<path d="M243.713 30.4698C243.713 30.3229 243.689 29.884 243.713 30.029C243.905 31.1831 244.391 32.3766 244.7 33.493C245.615 36.8009 246.969 40.1109 247.492 43.5072" stroke="#F5F5F5" stroke-width="3" stroke-linecap="round"/>
<path d="M248.625 49.7424C248.674 50.1342 249.222 49.6047 248.898 49.2806C248.378 48.7605 248.306 49.6063 248.436 49.9314" stroke="#F5F5F5" stroke-width="3" stroke-linecap="round"/>
</svg>
