<svg width="136" height="128" viewBox="0 0 136 128" fill="none" xmlns="http://www.w3.org/2000/svg">
<path d="M133 125C128.977 101.311 116.177 -17.8655 109.228 6.18835C102.279 30.2422 82.6155 43.0941 66.804 32.0645C55.8323 24.411 44.5383 -16.3771 43.0319 20.402C41.569 56.1184 24.0143 40.8114 14.8712 38.9891C5.72808 37.1668 -1.5864 63.7719 6.45953 73.9766C14.5055 84.1813 28.7687 99.1238 60.5867 90.377C69.364 85.712 64.2439 111.515 60.5867 125" stroke="#007AFF" stroke-width="5" stroke-linecap="round"/>
<path d="M21.0888 41.1758C28.0376 42.9981 22.5518 53.5672 4.99708 52.1094" stroke="#007AFF" stroke-width="5" stroke-linecap="round"/>
<ellipse cx="2.56007" cy="2.55117" rx="2.56007" ry="2.55117" transform="matrix(-1 0 0 1 67.9009 41.5403)" fill="#007AFF"/>
<ellipse cx="2.56007" cy="2.55117" rx="2.56007" ry="2.55117" transform="matrix(-1 0 0 1 67.9009 41.5403)" fill="#007AFF"/>
<ellipse cx="2.56007" cy="2.55117" rx="2.56007" ry="2.55117" transform="matrix(-1 0 0 1 67.9009 41.5403)" fill="#007AFF"/>
<ellipse cx="2.56007" cy="2.55117" rx="2.56007" ry="2.55117" transform="matrix(-1 0 0 1 67.9009 41.5403)" fill="#007AFF"/>
<ellipse cx="2.56007" cy="2.55117" rx="2.56007" ry="2.55117" transform="matrix(-1 0 0 1 86.1875 41.5403)" fill="#007AFF"/>
<ellipse cx="2.56007" cy="2.55117" rx="2.56007" ry="2.55117" transform="matrix(-1 0 0 1 86.1875 41.5403)" fill="#007AFF"/>
<ellipse cx="2.56007" cy="2.55117" rx="2.56007" ry="2.55117" transform="matrix(-1 0 0 1 86.1875 41.5403)" fill="#007AFF"/>
<ellipse cx="2.56007" cy="2.55117" rx="2.56007" ry="2.55117" transform="matrix(-1 0 0 1 86.1875 41.5403)" fill="#007AFF"/>
</svg>
