<svg width="1920" height="800" viewBox="0 0 1920 800" fill="none" xmlns="http://www.w3.org/2000/svg">
<g clip-path="url(#clip0_50_482)">
<rect width="1920" height="800" fill="white"/>
<path d="M58.2363 -2.52734C12.5039 -2.52734 -16.3096 26.7988 -16.3096 74.0693C-16.3096 121.34 12.4014 150.563 58.2363 150.563C103.969 150.563 132.782 121.34 132.782 74.0693C132.782 26.7988 103.969 -2.52734 58.2363 -2.52734ZM58.2363 32.1309C76.3857 32.1309 88.4854 48.4346 88.4854 74.0693C88.4854 99.6016 76.4883 115.905 58.2363 115.905C39.9844 115.905 27.9873 99.6016 27.9873 74.0693C27.9873 48.4346 40.0869 32.1309 58.2363 32.1309ZM289.77 148V0.0361328H151.752V148H195.229V34.4893H246.293V148H289.77ZM312.328 148H379.901C412.816 148 434.965 127.8 434.965 96.1152C434.965 64.7383 411.483 44.5381 376.928 44.5381H355.805V0.0361328H312.328V148ZM355.805 115.188V76.7354H368.007C382.157 76.7354 390.668 83.1953 390.668 96.0127C390.668 108.728 382.26 115.188 368.314 115.188H355.805ZM491.156 148V0.0361328H447.68V148H491.156ZM590.517 148V34.5918H629.481V0.0361328H508.075V34.5918H547.04V148H590.517Z" fill="#F5F5F5"/>
</g>
<defs>
<clipPath id="clip0_50_482">
<rect width="1920" height="800" fill="white"/>
</clipPath>
</defs>
</svg>
