<svg width="149" height="135" viewBox="0 0 149 135" fill="none" xmlns="http://www.w3.org/2000/svg">
<path d="M149 119.111C149 123.06 147.43 126.847 144.636 129.639C141.842 132.431 138.052 134 134.1 134H14.9C10.9483 134 7.1584 132.431 4.36411 129.639C1.56982 126.847 0 123.06 0 119.111V14.8889C0 10.9401 1.56982 7.15306 4.36411 4.36085C7.1584 1.56865 10.9483 0 14.9 0H44.6605C49.3398 0 53.7096 2.33772 56.3066 6.23019L62.8934 16.1031C65.4904 19.9956 69.8602 22.3333 74.5395 22.3333H134.1C138.052 22.3333 141.842 23.902 144.636 26.6942C147.43 29.4864 149 33.2734 149 37.2222V119.111Z" fill="#59A9FF"/>
<path d="M144.636 130.139C147.43 127.347 149 123.56 149 119.611V53C149 45.268 142.732 39 135 39L14 39C6.26802 39 0 45.268 0 53V119.611C0 123.56 1.56982 127.347 4.36411 130.139C7.1584 132.931 10.9483 134.5 14.9 134.5H134.1C138.052 134.5 141.842 132.931 144.636 130.139Z" fill="#007AFF"/>
</svg>
