<svg width="110" height="110" viewBox="0 0 110 110" fill="none" xmlns="http://www.w3.org/2000/svg">
<rect width="110" height="110" rx="55" fill="#007AFF"/>
<path d="M67.5 30H42.5C35.5964 30 30 35.5964 30 42.5V67.5C30 74.4036 35.5964 80 42.5 80H67.5C74.4036 80 80 74.4036 80 67.5V42.5C80 35.5964 74.4036 30 67.5 30Z" stroke="#F5F5F5" stroke-width="5" stroke-linecap="round" stroke-linejoin="round"/>
<path d="M65 53.425C65.3085 55.5056 64.9531 57.6306 63.9844 59.4976C63.0157 61.3646 61.4829 62.8786 59.6041 63.8242C57.7253 64.7699 55.5961 65.099 53.5195 64.7649C51.4428 64.4307 49.5244 63.4502 48.0371 61.9629C46.5498 60.4756 45.5693 58.5572 45.2352 56.4806C44.901 54.4039 45.2302 52.2748 46.1758 50.396C47.1215 48.5172 48.6355 46.9844 50.5025 46.0156C52.3695 45.0469 54.4944 44.6915 56.575 45C58.6973 45.3147 60.6621 46.3037 62.1792 47.8208C63.6963 49.3379 64.6853 51.3027 65 53.425Z" stroke="#F5F5F5" stroke-width="5" stroke-linecap="round" stroke-linejoin="round"/>
<path d="M68.75 41.25H68.7738" stroke="#F5F5F5" stroke-width="5" stroke-linecap="round" stroke-linejoin="round"/>
</svg>
