<svg width="341" height="211" viewBox="0 0 341 211" fill="none" xmlns="http://www.w3.org/2000/svg">
<path d="M153.288 151.363L152.894 148.894L152.866 148.899L152.837 148.904L153.288 151.363ZM133.61 184.431L136.096 184.169L136.096 184.169L133.61 184.431ZM202.351 199.963L202.686 202.44L202.686 202.44L202.351 199.963ZM215.978 175.947L218.475 175.831L218.475 175.831L215.978 175.947ZM170.218 158.63C170.218 160.011 171.338 161.13 172.718 161.13C174.099 161.13 175.218 160.011 175.218 158.63H170.218ZM173.582 72.1118C172.505 71.2489 170.931 71.4231 170.068 72.501C169.206 73.5788 169.38 75.1521 170.458 76.015L173.582 72.1118ZM169.53 72.8917C169.655 74.2668 170.871 75.2802 172.246 75.1553C173.621 75.0304 174.635 73.8144 174.51 72.4394L169.53 72.8917ZM175.59 51.4656L177.494 53.0848L175.59 51.4656ZM185.949 48.5535L187.421 46.5331L187.269 46.4225L187.103 46.3359L185.949 48.5535ZM185.328 62.5315L187.014 64.3776L187.349 64.0711L187.556 63.666L185.328 62.5315ZM173.196 67.9603C171.962 68.5782 171.461 70.08 172.079 71.3147C172.697 72.5495 174.199 73.0496 175.434 72.4318L173.196 67.9603ZM172.408 77.2429C173.778 77.4142 175.028 76.4426 175.199 75.0725C175.37 73.7025 174.399 72.4529 173.029 72.2815L172.408 77.2429ZM169.498 68.2003L171.692 67.001L171.692 67.001L169.498 68.2003ZM159.915 62.182L159.861 64.6814L159.915 62.182ZM147.577 70.2582L149.927 71.112L149.927 71.112L147.577 70.2582ZM174.955 73.7829C175.572 72.5477 175.071 71.0462 173.836 70.4291C172.6 69.812 171.099 70.313 170.482 71.5482L174.955 73.7829ZM168.451 79.3648C169.365 78.3292 169.265 76.7494 168.23 75.8363C167.194 74.9231 165.614 75.0225 164.701 76.0581L168.451 79.3648ZM159.67 93.3979L162.02 92.5441L162.02 92.5441L159.67 93.3979ZM176.584 95.5115C177.56 94.5348 177.559 92.9519 176.583 91.976C175.606 91.0001 174.023 91.0007 173.047 91.9773L176.584 95.5115ZM175.149 71.8118C174.658 70.5214 173.214 69.8735 171.924 70.3647C170.633 70.8559 169.985 72.3002 170.477 73.5906L175.149 71.8118ZM195.609 80.3535L197.845 81.4708L197.845 81.4708L195.609 80.3535ZM192.583 68.2004L194.43 66.5154L194.43 66.5154L192.583 68.2004ZM172.394 69.0973C171.51 70.1584 171.654 71.7347 172.715 72.6182C173.776 73.5017 175.353 73.3578 176.236 72.2968L172.394 69.0973ZM166.871 67.052C168.178 67.4959 169.598 66.7959 170.042 65.4885C170.486 64.1811 169.786 62.7614 168.478 62.3175L166.871 67.052ZM151.767 47.1169L154.004 45.9995L154.004 45.9995L151.767 47.1169ZM150.215 29.2561L152.555 30.137L150.215 29.2561ZM167.675 23.0437L169.092 20.9841L169.092 20.9841L167.675 23.0437ZM177.857 46.7051C177.629 48.067 178.549 49.3553 179.911 49.5827C181.273 49.8101 182.561 48.8905 182.788 47.5286L177.857 46.7051ZM186.04 53.6681C185.49 54.9345 186.071 56.407 187.337 56.9571C188.603 57.5072 190.076 56.9266 190.626 55.6602L186.04 53.6681ZM197.743 43.0788L198.273 45.522L197.743 43.0788ZM208.18 48.1264L205.927 49.2105L205.927 49.2105L208.18 48.1264ZM207.831 67.0743L210.248 67.7132L210.248 67.7132L207.831 67.0743ZM197.345 75.7125C195.964 75.7125 194.845 76.8318 194.845 78.2125C194.845 79.5933 195.964 80.7125 197.345 80.7125V75.7125ZM150.695 79.1754C152.057 78.9482 152.977 77.66 152.75 76.2981C152.523 74.9362 151.235 74.0163 149.873 74.2435L150.695 79.1754ZM136.404 90.4486L134.008 89.7354L134.008 89.7354L136.404 90.4486ZM136.404 99.9226L134.074 100.828L134.074 100.828L136.404 99.9226ZM165.172 98.0417C165.608 96.7317 164.9 95.3161 163.59 94.8797C162.28 94.4434 160.865 95.1516 160.428 96.4616L165.172 98.0417ZM177.315 82.7218C177.315 81.3411 176.196 80.2218 174.815 80.2218C173.435 80.2218 172.315 81.3411 172.315 82.7218H177.315ZM185.329 102.262L186.463 100.034L186.463 100.034L185.329 102.262ZM206.783 97.1271L209.012 98.2595L209.037 98.21L209.06 98.1594L206.783 97.1271ZM197.451 77.2904C196.111 76.9552 194.754 77.7694 194.419 79.1088C194.084 80.4483 194.898 81.8057 196.237 82.1409L197.451 77.2904ZM156.621 59.0269C157.647 59.9509 159.228 59.8683 160.152 58.8424C161.076 57.8165 160.994 56.2357 159.968 55.3117L156.621 59.0269ZM138.344 52.5528L137.524 50.1909L137.524 50.1909L138.344 52.5528ZM129.257 62.6806L131.713 63.1438L131.713 63.1438L129.257 62.6806ZM130.739 73.5198L128.571 74.7645L128.708 75.0026L128.893 75.2054L130.739 73.5198ZM149.729 78.8934C150.852 78.0909 151.113 76.5295 150.31 75.4059C149.508 74.2824 147.946 74.0221 146.823 74.8246L149.729 78.8934ZM264.737 160.436L266.962 161.577L267.042 161.42L267.1 161.253L264.737 160.436ZM261.428 173.408L263.874 173.925L263.884 173.878L263.892 173.83L261.428 173.408ZM306.484 207.979V205.479H306.46L306.437 205.48L306.484 207.979ZM334.02 161.884L336.256 160.767C336.195 160.644 336.123 160.526 336.042 160.414L334.02 161.884ZM274.443 169.4L274.891 166.94L274.891 166.94L274.443 169.4ZM302.134 148.958L301.977 151.453L301.977 151.453L302.134 148.958ZM302.271 148.967L302.428 146.472L302.428 146.472L302.271 148.967ZM299.062 76.0468C299.062 74.666 297.943 73.5468 296.562 73.5468C295.181 73.5468 294.062 74.666 294.062 76.0468H299.062ZM295.835 138.935L293.335 138.889L295.835 138.935ZM292.47 158.377C292.47 159.758 293.59 160.877 294.97 160.877C296.351 160.877 297.47 159.758 297.47 158.377H292.47ZM292.628 79.2666C292.799 80.6367 294.049 81.6086 295.419 81.4375C296.789 81.2664 297.761 80.017 297.59 78.6469L292.628 79.2666ZM293.009 72.7327L295.403 72.0134L295.403 72.0134L293.009 72.7327ZM286.709 48.3212L289.18 47.9413L286.709 48.3212ZM299.955 19.1406L298.926 16.8624L298.926 16.8624L299.955 19.1406ZM312.071 21.1614L313.972 19.538L313.972 19.538L312.071 21.1614ZM314.575 41.7737L317.04 42.1868L317.04 42.1868L314.575 41.7737ZM304.802 63.2752L306.714 64.8857L306.714 64.8857L304.802 63.2752ZM294.933 71.2889C294.135 72.4161 294.403 73.9762 295.53 74.7736C296.657 75.571 298.217 75.3036 299.015 74.1764L294.933 71.2889ZM291.17 76.3227C291.323 77.695 292.559 78.684 293.931 78.5316C295.303 78.3792 296.292 77.1433 296.14 75.771L291.17 76.3227ZM288.728 69.9036L290.278 67.9423L290.278 67.9423L288.728 69.9036ZM270.716 60.0824L270.859 57.5865L270.716 60.0824ZM276.208 80.2502L275.996 82.7412L276.208 80.2502ZM292.524 77.8656L291.37 75.6479L291.37 75.6479L292.524 77.8656ZM297.604 72.8248C296.628 71.8481 295.045 71.8475 294.069 72.8234C293.092 73.7994 293.091 75.3823 294.067 76.359L297.604 72.8248ZM294.971 80.7126C296.352 80.7126 297.471 79.5933 297.471 78.2126C297.471 76.8319 296.352 75.7126 294.971 75.7126V80.7126ZM280.005 92.0517L282.22 93.211L282.22 93.211L280.005 92.0517ZM284.366 100.458L283.381 102.756L283.381 102.756L284.366 100.458ZM299.474 86.7301C299.474 85.3494 298.354 84.2301 296.974 84.2301C295.593 84.2301 294.474 85.3494 294.474 86.7301H299.474ZM295.038 74.1251C294.164 75.194 294.322 76.769 295.391 77.6429C296.46 78.5168 298.035 78.3587 298.909 77.2898L295.038 74.1251ZM315.1 71.2778L314.701 73.7458L314.701 73.7458L315.1 71.2778ZM304.64 90.7585L304.373 93.2442L304.373 93.2442L304.64 90.7585ZM299.346 85.439C298.909 84.1291 297.494 83.4208 296.184 83.8572C294.874 84.2935 294.165 85.7091 294.602 87.0191L299.346 85.439ZM305.218 58.4084C304.242 59.3851 304.243 60.968 305.219 61.944C306.196 62.9199 307.779 62.9193 308.755 61.9426L305.218 58.4084ZM319.582 48.2403L321.235 50.1159L321.235 50.1159L319.582 48.2403ZM335.494 48.0787L337.329 46.3809L337.329 46.3809L335.494 48.0787ZM334.525 62.4669L332.882 60.5826L332.882 60.5826L334.525 62.4669ZM318.001 69.1992C316.62 69.1992 315.501 70.3185 315.501 71.6992C315.501 73.0799 316.62 74.1992 318.001 74.1992V69.1992ZM283.878 46.5307C284.643 47.6798 286.196 47.9908 287.345 47.2253C288.494 46.4598 288.805 44.9078 288.039 43.7587L283.878 46.5307ZM264.98 43.5521L262.89 42.1811L262.89 42.1811L264.98 43.5521ZM287.054 69.0187C288.341 69.5195 289.79 68.8823 290.291 67.5956C290.792 66.3089 290.154 64.8599 288.868 64.3592L287.054 69.0187ZM290.969 71.1982C290.969 72.5789 292.088 73.6982 293.469 73.6982C294.849 73.6982 295.969 72.5789 295.969 71.1982H290.969ZM304.396 35.307L304.235 32.8122L304.396 35.307ZM312.554 39.8337L310.225 40.7441L310.225 40.7441L312.554 39.8337ZM303.273 61.0106C302.628 62.2311 303.094 63.7438 304.314 64.3895C305.535 65.0351 307.047 64.5691 307.693 63.3487L303.273 61.0106ZM18.6795 163.51C18.6795 162.13 17.5602 161.01 16.1795 161.01C14.7988 161.01 13.6795 162.13 13.6795 163.51H18.6795ZM30.1681 200.585L30.2153 198.086L30.2153 198.086L30.1681 200.585ZM96.7807 162.508C96.7807 161.127 95.6614 160.008 94.2807 160.008C92.9 160.008 91.7807 161.127 91.7807 162.508H96.7807ZM20.1849 157.999L18.7064 155.983L18.7064 155.983L20.1849 157.999ZM42.7141 174.533L42.4261 177.016L42.508 177.026L42.5903 177.03L42.7141 174.533ZM93.2793 164.011L95.2226 165.584L95.2226 165.584L93.2793 164.011ZM62.7398 151.987L62.6236 154.484L62.6381 154.485L62.6525 154.485L62.7398 151.987ZM51.6596 161.383C51.6596 162.764 52.7789 163.883 54.1596 163.883C55.5403 163.883 56.6596 162.764 56.6596 161.383H51.6596ZM46.1492 75.7074L43.6494 75.7343L46.1492 75.7074ZM40.1145 17.928L37.6853 17.337L37.6853 17.337L40.1145 17.928ZM44.678 4.55016L42.3061 3.76014L42.3061 3.76014L44.678 4.55016ZM47.2223 14.7755L49.72 14.8827L49.7223 14.8291V14.7755H47.2223ZM52.6579 35.625L50.3002 34.7935L50.3002 34.7935L52.6579 35.625ZM40.1373 43.3104C41.338 42.6287 41.7587 41.1027 41.0771 39.902C40.3954 38.7013 38.8694 38.2806 37.6687 38.9623L40.1373 43.3104ZM15.7217 57.132L17.3164 59.0574L17.3164 59.0574L15.7217 57.132ZM26.7874 57.6978L25.993 55.3274L25.993 55.3274L26.7874 57.6978ZM37.9741 54.02L38.7254 56.4044L38.7254 56.4044L37.9741 54.02ZM38.903 54.505L40.4528 56.4666L40.4528 56.4666L38.903 54.505ZM26.1412 68.1657L24.1638 66.636L26.1412 68.1657ZM17.9429 82.1497L15.4711 81.7755L15.4711 81.7755L17.9429 82.1497ZM23.3546 83.8876L22.4762 81.547L22.4762 81.547L23.3546 83.8876ZM47.5045 63.5161C47.9659 62.2147 47.285 60.7857 45.9837 60.3243C44.6824 59.8629 43.2534 60.5438 42.792 61.8451L47.5045 63.5161ZM47.5396 60.8619C47.5907 59.4822 46.5136 58.3222 45.1338 58.2712C43.754 58.2201 42.5941 59.2972 42.5431 60.677L47.5396 60.8619ZM62.8513 76.2893L61.2003 74.4121L61.2003 74.4121L62.8513 76.2893ZM58.6597 55.7005C57.4673 55.0044 55.9364 55.4067 55.2403 56.5991C54.5442 57.7915 54.9465 59.3224 56.1389 60.0185L58.6597 55.7005ZM36.1398 26.1055C36.1398 27.4862 37.2591 28.6055 38.6398 28.6055C40.0205 28.6055 41.1398 27.4862 41.1398 26.1055H36.1398ZM24.6217 19.5921L23.7547 17.2473L23.7547 17.2473L24.6217 19.5921ZM17.9028 35.1858L15.9471 36.7431L15.9471 36.7431L17.9028 35.1858ZM31.9556 45.8471C33.1737 46.4972 34.6882 46.0368 35.3383 44.8187C35.9884 43.6007 35.528 42.0862 34.31 41.436L31.9556 45.8471ZM44.7613 18.8574C44.3555 20.1771 45.0964 21.5759 46.4162 21.9817C47.7359 22.3874 49.1347 21.6465 49.5405 20.3268L44.7613 18.8574ZM53.6593 7.56737L55.4387 9.32344L55.4387 9.32344L53.6593 7.56737ZM61.3576 26.6639C60.8358 27.9422 61.4492 29.4015 62.7275 29.9232C64.0059 30.445 65.4651 29.8316 65.9869 28.5533L61.3576 26.6639ZM68.806 46.3094C67.5124 46.7919 66.8548 48.2318 67.3373 49.5254C67.8198 50.8191 69.2596 51.4767 70.5533 50.9942L68.806 46.3094ZM81.0655 62.0626L82.9533 63.7016L82.9533 63.7016L81.0655 62.0626ZM67.0296 64.715C65.6628 64.5196 64.3964 65.4692 64.2009 66.8361C64.0055 68.2029 64.9551 69.4693 66.322 69.6647L67.0296 64.715ZM60.7405 29.0263C59.8631 30.0924 60.0162 31.6679 61.0823 32.5452C62.1485 33.4226 63.724 33.2695 64.6013 32.2034L60.7405 29.0263ZM82.1961 24.1013L82.9991 21.7338L82.9991 21.7338L82.1961 24.1013ZM87.6079 38.0555L85.3462 36.9904L87.6079 38.0555ZM74.9743 45.5551C73.8037 46.2872 73.4483 47.8297 74.1804 49.0003C74.9126 50.1709 76.4551 50.5263 77.6257 49.7941L74.9743 45.5551ZM17.4953 38.3618C18.73 38.9797 20.2319 38.4796 20.8497 37.2448C21.4676 36.0101 20.9675 34.5082 19.7327 33.8904L17.4953 38.3618ZM4.5953 40.6354L6.72577 41.9434L6.72578 41.9434L4.5953 40.6354ZM20.748 55.1566C22.1268 55.0839 23.1856 53.9073 23.113 52.5285C23.0404 51.1497 21.8638 50.0909 20.485 50.1635L20.748 55.1566ZM130.678 163.947C132.152 166.876 134.746 169.111 137.858 170.814C140.976 172.522 144.771 173.782 148.91 174.693C157.188 176.515 167.215 177.016 176.874 176.629C186.541 176.241 195.994 174.957 203.152 173.128C206.716 172.217 209.828 171.143 212.138 169.912C213.291 169.298 214.346 168.592 215.164 167.767C215.978 166.947 216.711 165.849 216.853 164.478L211.88 163.964C211.896 163.804 211.957 163.9 211.615 164.246C211.277 164.587 210.693 165.017 209.788 165.499C207.981 166.461 205.303 167.418 201.914 168.284C195.169 170.007 186.076 171.256 176.674 171.633C167.265 172.01 157.701 171.508 149.985 169.81C146.127 168.961 142.824 167.833 140.259 166.429C137.687 165.02 136.011 163.422 135.144 161.7L130.678 163.947ZM216.779 163.564C215.427 158.602 211.819 155.063 207.216 152.609C202.636 150.167 196.88 148.686 190.749 147.862C178.473 146.212 164.059 147.116 152.894 148.894L153.681 153.832C164.544 152.102 178.441 151.253 190.083 152.818C195.91 153.601 201.015 154.969 204.864 157.021C208.689 159.06 211.077 161.658 211.954 164.878L216.779 163.564ZM152.837 148.904C147.556 149.871 142.077 150.684 138.028 152.381C135.947 153.254 134.016 154.443 132.607 156.196C131.159 157.998 130.411 160.21 130.411 162.824H135.411C135.411 161.227 135.843 160.151 136.504 159.328C137.206 158.456 138.316 157.682 139.961 156.992C143.364 155.566 148.073 154.859 153.738 153.822L152.837 148.904ZM130.411 162.824C130.411 170.981 130.274 176.615 131.123 184.692L136.096 184.169C135.28 176.412 135.411 171.081 135.411 162.824H130.411ZM131.123 184.692C131.191 185.334 131.209 187.827 132.437 190.628C133.7 193.508 136.16 196.631 140.846 199.198C150.04 204.234 167.828 207.153 202.686 202.44L202.016 197.485C167.36 202.171 150.958 199.036 143.249 194.813C139.484 192.751 137.815 190.442 137.017 188.62C136.183 186.72 136.208 185.24 136.096 184.169L131.123 184.692ZM202.686 202.44C207.064 201.848 210.418 200.404 212.911 198.277C215.406 196.149 216.867 193.485 217.698 190.745C219.306 185.445 218.641 179.403 218.475 175.831L213.481 176.063C213.671 180.161 214.203 185.044 212.914 189.293C212.297 191.327 211.285 193.093 209.667 194.473C208.047 195.854 205.649 196.994 202.016 197.485L202.686 202.44ZM218.475 175.831C218.356 173.271 217.854 167.511 216.779 163.564L211.954 164.878C212.882 168.282 213.366 173.598 213.481 176.063L218.475 175.831ZM175.218 158.63C175.218 152.066 175.733 145.512 176.258 138.839C176.781 132.199 177.313 125.443 177.313 118.638H172.313C172.313 125.214 171.799 131.775 171.274 138.447C170.751 145.086 170.218 151.837 170.218 158.63H175.218ZM177.313 118.638C177.313 114.04 177.137 109.481 176.962 104.982C176.788 100.467 176.615 96.0101 176.615 91.5359H171.615C171.615 96.123 171.792 100.676 171.966 105.175C172.141 109.691 172.313 114.152 172.313 118.638H177.313ZM176.615 91.5359C176.615 90.4328 176.72 89.0444 176.833 87.3725C176.943 85.7522 177.056 83.9272 177.038 82.1351C177.02 80.3551 176.874 78.484 176.415 76.7842C175.957 75.0895 175.128 73.349 173.582 72.1118L170.458 76.015C170.873 76.3475 171.286 76.9702 171.588 78.0889C171.889 79.2025 172.022 80.5948 172.038 82.1849C172.054 83.7628 171.955 85.4146 171.845 87.034C171.739 88.602 171.615 90.2164 171.615 91.5359H176.615ZM174.51 72.4394C174.203 69.0591 173.93 65.3724 174.278 61.8789C174.626 58.385 175.573 55.3443 177.494 53.0848L173.685 49.8464C170.847 53.1847 169.703 57.3656 169.302 61.3831C168.902 65.401 169.224 69.5154 169.53 72.8917L174.51 72.4394ZM177.494 53.0848C178.846 51.4953 179.933 50.5849 180.962 50.2042C181.829 49.8839 182.973 49.8231 184.794 50.7712L187.103 46.3359C184.3 44.877 181.679 44.6087 179.229 45.5144C176.942 46.3597 175.162 48.1087 173.685 49.8464L177.494 53.0848ZM184.476 50.574C185.236 51.1277 185.733 51.8799 185.723 53.3639C185.712 55.0371 185.038 57.5926 183.1 61.397L187.556 63.666C189.625 59.603 190.704 56.2207 190.723 53.3973C190.743 50.3848 189.546 48.0817 187.421 46.5331L184.476 50.574ZM183.642 60.6855C179.849 64.1493 174.618 67.2487 173.196 67.9603L175.434 72.4318C177.157 71.5695 182.799 68.2263 187.014 64.3776L183.642 60.6855ZM173.029 72.2815C173.455 72.3349 173.714 72.524 173.796 72.5921C173.873 72.6564 173.865 72.6717 173.791 72.5611L169.633 75.3383C170.01 75.9018 170.889 77.0528 172.408 77.2429L173.029 72.2815ZM173.791 72.5611C173.486 72.1047 173.132 71.1939 172.752 70.0141C172.664 69.742 172.581 69.4737 172.498 69.2092C172.418 68.9495 172.336 68.6866 172.259 68.4464C172.131 68.0501 171.936 67.4476 171.692 67.001L167.304 69.3996C167.277 69.3496 167.335 69.4668 167.499 69.9763C167.567 70.189 167.64 70.4255 167.724 70.6946C167.806 70.959 167.897 71.2488 167.993 71.5473C168.348 72.6493 168.884 74.2166 169.633 75.3383L173.791 72.5611ZM171.692 67.001C170.48 64.7855 168.923 62.9543 166.915 61.6709C164.896 60.3811 162.567 59.7391 159.969 59.6826L159.861 64.6814C161.675 64.7209 163.082 65.1555 164.223 65.8845C165.374 66.62 166.403 67.75 167.304 69.3996L171.692 67.001ZM159.969 59.6826C157.086 59.6199 153.924 60.7501 151.323 62.404C148.728 64.0538 146.289 66.4818 145.227 69.4044L149.927 71.112C150.483 69.5821 151.962 67.923 154.006 66.6233C156.043 65.3278 158.241 64.6462 159.861 64.6814L159.969 59.6826ZM145.227 69.4044C144.646 71.0045 144.518 72.6153 144.989 74.1349C145.459 75.6503 146.441 76.8062 147.6 77.6509C149.825 79.2718 152.986 79.9699 156.038 80.1674C159.171 80.3701 162.583 80.0695 165.614 79.3656C168.567 78.68 171.507 77.5319 173.403 75.7912L170.021 72.1082C169.072 72.9796 167.136 73.8792 164.483 74.4952C161.909 75.093 158.987 75.3477 156.361 75.1778C153.653 75.0026 151.629 74.3999 150.545 73.61C150.05 73.2493 149.848 72.9222 149.765 72.6544C149.683 72.3909 149.634 71.9183 149.927 71.112L145.227 69.4044ZM173.403 75.7912C174.01 75.2336 174.562 74.5684 174.955 73.7829L170.482 71.5482C170.422 71.6687 170.29 71.8614 170.021 72.1082L173.403 75.7912ZM164.701 76.0581C163.156 77.8101 160.805 80.5951 159.085 83.6798C157.433 86.6433 155.979 90.5606 157.321 94.2517L162.02 92.5441C161.467 91.0215 161.941 88.8258 163.452 86.1146C164.896 83.5246 166.945 81.0733 168.451 79.3648L164.701 76.0581ZM157.321 94.2517C158.237 96.7726 160.589 99.5896 164.184 100.435C167.931 101.315 172.213 99.8857 176.584 95.5115L173.047 91.9773C169.408 95.6196 166.807 95.915 165.328 95.5675C163.699 95.1845 162.483 93.82 162.02 92.5441L157.321 94.2517ZM170.477 73.5906C172.823 79.7549 178.438 83.7485 183.776 85.3279C186.463 86.1231 189.263 86.3654 191.739 85.8499C194.234 85.3303 196.592 83.9802 197.845 81.4708L193.373 79.2361C192.989 80.0038 192.18 80.6508 190.719 80.9549C189.24 81.263 187.296 81.1554 185.194 80.5334C180.954 79.2786 176.808 76.1691 175.149 71.8118L170.477 73.5906ZM197.845 81.4708C198.486 80.1887 198.581 78.6945 198.508 77.4173C198.431 76.0812 198.15 74.6661 197.772 73.3371C197.045 70.7857 195.801 68.0188 194.43 66.5154L190.736 69.8854C191.336 70.5426 192.315 72.4322 192.963 74.7071C193.272 75.7913 193.466 76.8319 193.516 77.7031C193.569 78.6333 193.442 79.0983 193.373 79.2361L197.845 81.4708ZM194.43 66.5154C192.939 64.8812 190.855 64.1451 188.867 63.8709C186.855 63.5933 184.674 63.7473 182.625 64.1402C180.565 64.5351 178.531 65.1921 176.787 66.0035C175.1 66.7888 173.453 67.8251 172.394 69.0973L176.236 72.2968C176.608 71.8501 177.485 71.1935 178.897 70.5367C180.252 69.9059 181.892 69.3716 183.566 69.0507C185.251 68.7278 186.861 68.6415 188.184 68.824C189.531 69.0098 190.324 69.4341 190.736 69.8854L194.43 66.5154ZM168.478 62.3175C165.516 61.3116 162.408 58.4042 159.658 54.8914C156.975 51.4645 154.928 47.849 154.004 45.9995L149.531 48.2342C150.567 50.3079 152.785 54.2238 155.721 57.9738C158.59 61.6378 162.455 65.5527 166.871 67.052L168.478 62.3175ZM154.004 45.9995C151.567 41.1214 150.739 34.9612 152.555 30.137L147.876 28.3752C145.444 34.8336 146.65 42.4674 149.531 48.2342L154.004 45.9995ZM152.555 30.137C153.692 27.1182 155.884 24.9719 158.354 24.0259C160.779 23.0975 163.593 23.2699 166.258 25.1033L169.092 20.9841C165.056 18.2071 160.511 17.846 156.566 19.3565C152.667 20.8494 149.48 24.1146 147.876 28.3752L152.555 30.137ZM166.258 25.1033C172.499 29.3977 179.599 36.2717 177.857 46.7051L182.788 47.5286C185.051 33.9763 175.593 25.4571 169.092 20.9841L166.258 25.1033ZM190.626 55.6602C191.364 53.9616 192.409 51.5347 193.825 49.4021C195.298 47.1839 196.816 45.8379 198.273 45.522L197.213 40.6356C193.766 41.3834 191.303 44.1614 189.66 46.6358C187.96 49.1956 186.752 52.0294 186.04 53.6681L190.626 55.6602ZM198.273 45.522C200.369 45.0674 201.827 45.2413 202.9 45.7569C203.967 46.2699 205.002 47.2886 205.927 49.2105L210.433 47.0423C209.176 44.4305 207.445 42.3936 205.065 41.2502C202.691 40.1095 200.022 40.0264 197.213 40.6356L198.273 45.522ZM205.927 49.2105C206.284 49.9523 206.562 51.1172 206.7 52.6738C206.835 54.1945 206.825 55.9229 206.714 57.684C206.492 61.2225 205.882 64.6632 205.414 66.4355L210.248 67.7132C210.808 65.5928 211.464 61.8263 211.704 57.9974C211.825 56.0748 211.845 54.0795 211.68 52.2306C211.519 50.4177 211.166 48.5673 210.433 47.0423L205.927 49.2105ZM205.414 66.4355C204.914 68.3252 204.134 70.7476 202.786 72.6647C201.494 74.5002 199.815 75.7125 197.345 75.7125V80.7125C201.883 80.7125 204.933 78.3021 206.875 75.5417C208.76 72.8628 209.718 69.7162 210.248 67.7132L205.414 66.4355ZM149.873 74.2435C148.148 74.5311 146.409 75.4433 144.864 76.5039C143.276 77.5936 141.691 78.9816 140.253 80.4579C137.466 83.319 134.849 86.9088 134.008 89.7354L138.8 91.1618C139.289 89.5172 141.214 86.6374 143.835 83.9468C145.101 82.6472 146.437 81.4888 147.693 80.6261C148.993 79.7341 150.021 79.2878 150.695 79.1754L149.873 74.2435ZM134.008 89.7354C133.056 92.9318 132.69 97.2688 134.074 100.828L138.734 99.0171C137.892 96.8512 138.034 93.734 138.8 91.1618L134.008 89.7354ZM134.074 100.828C135.553 104.635 138.108 107.151 141.219 108.484C144.268 109.791 147.667 109.887 150.832 109.245C154.003 108.603 157.084 107.194 159.604 105.297C162.107 103.413 164.211 100.926 165.172 98.0417L160.428 96.4616C159.877 98.1157 158.549 99.8331 156.597 101.302C154.662 102.759 152.267 103.853 149.839 104.345C147.405 104.838 145.083 104.7 143.188 103.889C141.355 103.103 139.744 101.616 138.734 99.0171L134.074 100.828ZM172.315 82.7218C172.315 85.3301 173.292 89.6664 175.131 93.7778C176.959 97.8656 179.892 102.3 184.195 104.49L186.463 100.034C183.675 98.615 181.35 95.4375 179.695 91.7363C178.05 88.0587 177.315 84.4293 177.315 82.7218H172.315ZM184.195 104.49C188.063 106.458 192.785 107.658 197.328 106.979C202 106.28 206.294 103.609 209.012 98.2595L204.554 95.9946C202.587 99.8673 199.699 101.568 196.588 102.034C193.349 102.518 189.686 101.674 186.463 100.034L184.195 104.49ZM209.06 98.1594C211.326 93.1622 209.884 88.2217 207.337 84.5656C204.83 80.9678 200.972 78.1713 197.451 77.2904L196.237 82.1409C198.397 82.6812 201.298 84.6445 203.234 87.4241C205.131 90.1454 205.819 93.2001 204.506 96.0947L209.06 98.1594ZM159.968 55.3117C157.851 53.405 154.378 51.4415 150.468 50.281C146.551 49.118 141.896 48.6742 137.524 50.1909L139.163 54.9147C142.226 53.8521 145.746 54.095 149.045 55.0743C152.353 56.056 155.138 57.6904 156.621 59.0269L159.968 55.3117ZM137.524 50.1909C135.082 51.0381 132.667 52.8548 130.788 54.9181C128.916 56.9722 127.298 59.5758 126.8 62.2174L131.713 63.1438C131.979 61.7365 132.97 59.9474 134.484 58.2853C135.989 56.6326 137.736 55.4097 139.163 54.9147L137.524 50.1909ZM126.8 62.2174C126.204 65.3784 125.644 69.6662 128.571 74.7645L132.907 72.275C130.867 68.7217 131.197 65.8857 131.713 63.1438L126.8 62.2174ZM128.893 75.2054C132.73 79.4088 136.672 81.3517 140.453 81.6404C144.196 81.9262 147.394 80.5613 149.729 78.8934L146.823 74.8246C145.159 76.0132 143.102 76.8282 140.834 76.6549C138.604 76.4847 135.777 75.3297 132.585 71.8342L128.893 75.2054ZM262.512 159.296C262.376 159.562 262.248 159.843 262.13 160.129L266.747 162.047C266.827 161.854 266.899 161.698 266.962 161.577L262.512 159.296ZM262.13 160.129C261.264 162.214 260.471 165.508 259.914 168.107C259.628 169.443 259.391 170.659 259.226 171.541C259.143 171.982 259.078 172.341 259.033 172.591C259.011 172.715 258.994 172.813 258.982 172.88C258.976 172.913 258.972 172.939 258.969 172.957C258.967 172.966 258.966 172.973 258.965 172.978C258.965 172.98 258.964 172.982 258.964 172.983C258.964 172.984 258.964 172.985 258.964 172.985C258.964 172.985 258.964 172.986 258.964 172.986C258.964 172.986 258.964 172.986 261.428 173.408C263.892 173.83 263.892 173.83 263.892 173.83C263.892 173.83 263.892 173.83 263.892 173.83C263.892 173.83 263.892 173.83 263.892 173.83C263.892 173.829 263.892 173.828 263.893 173.826C263.893 173.823 263.894 173.817 263.895 173.809C263.898 173.794 263.902 173.771 263.907 173.741C263.918 173.679 263.934 173.588 263.955 173.47C263.998 173.233 264.06 172.888 264.14 172.463C264.3 171.611 264.528 170.438 264.803 169.155C265.368 166.517 266.081 163.651 266.747 162.047L262.13 160.129ZM261.428 173.408C258.982 172.892 258.981 172.894 258.981 172.895C258.981 172.896 258.98 172.898 258.98 172.9C258.979 172.903 258.978 172.907 258.977 172.912C258.976 172.921 258.973 172.932 258.971 172.945C258.966 172.971 258.959 173.006 258.951 173.05C258.934 173.136 258.913 173.256 258.888 173.408C258.839 173.71 258.778 174.137 258.722 174.672C258.609 175.739 258.514 177.244 258.577 179.039C258.703 182.618 259.462 187.435 262.039 192.249C267.32 202.116 279.662 210.991 306.532 210.479L306.437 205.48C280.739 205.97 270.552 197.559 266.447 189.89C264.331 185.936 263.682 181.923 263.574 178.863C263.52 177.338 263.601 176.072 263.694 175.198C263.74 174.762 263.789 174.426 263.824 174.207C263.842 174.098 263.856 174.019 263.865 173.971C263.87 173.947 263.873 173.931 263.874 173.923C263.875 173.919 263.875 173.917 263.875 173.918C263.875 173.918 263.875 173.918 263.875 173.92C263.875 173.92 263.874 173.921 263.874 173.922C263.874 173.923 263.874 173.925 261.428 173.408ZM306.484 210.479C317.765 210.479 325.69 207.751 331.05 203.256C336.418 198.754 338.899 192.745 339.808 186.814C340.713 180.91 340.087 174.956 339.138 170.28C338.195 165.637 336.886 162.028 336.256 160.767L331.784 163.002C332.155 163.745 333.349 166.9 334.237 171.275C335.119 175.618 335.65 180.937 334.866 186.056C334.085 191.148 332.028 195.91 327.837 199.425C323.638 202.947 316.982 205.479 306.484 205.479V210.479ZM331.686 160.988C331.378 161.79 330.657 162.666 329.273 163.549C327.892 164.431 326.008 165.217 323.672 165.884C319.001 167.22 312.943 167.967 306.544 168.295C293.743 168.95 280.172 167.901 274.891 166.94L273.995 171.86C279.728 172.903 293.693 173.96 306.8 173.288C313.355 172.953 319.845 172.178 325.046 170.692C327.646 169.949 330.03 168.998 331.963 167.764C333.894 166.531 335.535 164.911 336.354 162.781L331.686 160.988ZM274.891 166.94C273.029 166.602 270.314 166.058 268.365 165.016C267.402 164.5 266.9 164.003 266.687 163.609C266.542 163.339 266.403 162.905 266.759 162.019L262.119 160.157C261.284 162.236 261.347 164.241 262.287 165.983C263.159 167.6 264.626 168.686 266.007 169.425C268.749 170.891 272.226 171.538 273.995 171.86L274.891 166.94ZM266.759 162.019C266.813 161.883 266.88 161.736 266.962 161.577L262.512 159.296C262.365 159.582 262.234 159.869 262.119 160.157L266.759 162.019ZM267.1 161.253C267.899 158.943 269.791 157.054 272.672 155.536C275.558 154.016 279.214 152.992 283.089 152.334C290.832 151.02 298.885 151.258 301.977 151.453L302.292 146.463C299.031 146.257 290.542 145.998 282.253 147.405C278.112 148.108 273.88 149.249 270.342 151.113C266.799 152.979 263.732 155.693 262.374 159.619L267.1 161.253ZM301.977 151.453L302.113 151.462L302.428 146.472L302.291 146.463L301.977 151.453ZM302.113 151.462C305.34 151.665 310.954 152.024 316.757 153.69C322.575 155.361 328.296 158.265 331.998 163.355L336.042 160.414C331.422 154.062 324.497 150.711 318.136 148.884C311.76 147.054 305.66 146.675 302.428 146.472L302.113 151.462ZM294.062 76.0468C294.062 97.0151 293.715 117.981 293.335 138.889L298.335 138.98C298.714 118.071 299.062 97.0651 299.062 76.0468H294.062ZM293.335 138.889C293.293 141.198 293.081 144.795 292.874 148.495C292.67 152.14 292.47 155.894 292.47 158.377H297.47C297.47 156.065 297.66 152.467 297.866 148.775C298.07 145.137 298.29 141.41 298.335 138.98L293.335 138.889ZM297.59 78.6469C297.44 77.448 296.919 76.025 296.499 74.9308C296.015 73.6681 295.615 72.7188 295.403 72.0134L290.615 73.4519C290.898 74.3953 291.442 75.7093 291.831 76.7221C292.284 77.9034 292.566 78.7681 292.628 79.2666L297.59 78.6469ZM295.403 72.0134C292.954 63.8611 290.43 56.0746 289.18 47.9413L284.238 48.701C285.555 57.2667 288.215 65.465 290.615 73.4519L295.403 72.0134ZM289.18 47.9413C288.506 43.5553 289.251 37.8382 291.37 32.6803C293.496 27.5024 296.832 23.2956 300.985 21.4187L298.926 16.8624C293.186 19.4566 289.145 24.9373 286.745 30.7806C284.336 36.6439 283.405 43.2815 284.238 48.701L289.18 47.9413ZM300.985 21.4187C304.596 19.7867 307.889 20.1139 310.17 22.7848L313.972 19.538C309.789 14.6388 303.84 14.6415 298.926 16.8624L300.985 21.4187ZM310.17 22.7848C312.068 25.0077 312.88 27.8843 313.033 31.1912C313.188 34.5194 312.666 38.0353 312.109 41.3606L317.04 42.1868C317.595 38.8743 318.21 34.8801 318.028 30.9596C317.845 27.0179 316.849 22.9072 313.972 19.538L310.17 22.7848ZM312.109 41.3606C310.973 48.144 307.352 56.3657 302.889 61.6648L306.714 64.8857C311.797 58.8498 315.768 49.7835 317.04 42.1868L312.109 41.3606ZM302.889 61.6648C301.316 63.5329 297.515 67.638 294.933 71.2889L299.015 74.1764C301.438 70.7501 304.88 67.0634 306.714 64.8857L302.889 61.6648ZM296.14 75.771C295.911 73.7097 294.613 71.9962 293.533 70.8359C292.392 69.6099 291.084 68.5788 290.278 67.9423L287.178 71.8649C288.01 72.5231 289.029 73.3348 289.873 74.2424C290.779 75.2157 291.126 75.9264 291.17 76.3227L296.14 75.771ZM290.278 67.9423C287.757 65.9496 284.837 63.4517 281.726 61.4748C278.571 59.4702 274.964 57.8213 270.859 57.5865L270.573 62.5783C273.496 62.7455 276.265 63.9286 279.044 65.6949C281.867 67.4888 284.439 69.7006 287.178 71.8649L290.278 67.9423ZM270.859 57.5865C267.312 57.3837 263.248 57.6771 259.974 59.3541C258.296 60.2135 256.788 61.4563 255.712 63.1982C254.635 64.9425 254.081 67.039 254.081 69.459H259.081C259.081 67.817 259.449 66.6621 259.966 65.8262C260.484 64.988 261.242 64.322 262.253 63.8044C264.356 62.7274 267.36 62.3946 270.573 62.5783L270.859 57.5865ZM254.081 69.459C254.081 72.4269 255.073 74.8458 256.771 76.7228C258.416 78.5423 260.602 79.7209 262.82 80.5194C267.195 82.0938 272.479 82.4416 275.996 82.7412L276.421 77.7592C272.664 77.4392 268.134 77.1179 264.513 75.8149C262.735 75.1746 261.377 74.3625 260.479 73.3692C259.633 72.4334 259.081 71.2176 259.081 69.459H254.081ZM275.996 82.7412C281.944 83.2478 287.869 83.1064 293.678 80.0833L291.37 75.6479C286.823 78.014 282.049 78.2386 276.421 77.7592L275.996 82.7412ZM293.678 80.0833C294.22 79.8013 295.415 79.1159 296.404 78.3318C296.866 77.9655 297.491 77.4183 297.921 76.7451C298.138 76.4045 298.433 75.8367 298.475 75.1068C298.525 74.2598 298.218 73.4386 297.604 72.8248L294.067 76.359C293.67 75.9614 293.45 75.3897 293.484 74.8155C293.511 74.3585 293.686 74.087 293.705 74.0562C293.74 74.0027 293.656 74.1295 293.298 74.4133C292.647 74.9293 291.754 75.4483 291.37 75.6479L293.678 80.0833ZM294.971 75.7126C293.049 75.7126 291.126 76.78 289.6 77.8519C287.959 79.0045 286.273 80.5324 284.728 82.1099C281.683 85.2183 278.843 88.8809 277.79 90.8924L282.22 93.211C282.944 91.8279 285.399 88.5709 288.3 85.6084C289.728 84.1505 291.176 82.8551 292.474 81.9432C293.887 80.9508 294.706 80.7126 294.971 80.7126V75.7126ZM277.79 90.8924C276.326 93.6881 276.369 96.3686 277.842 98.6143C279.15 100.609 281.36 101.889 283.381 102.756L285.352 98.1607C283.593 97.4062 282.507 96.611 282.023 95.8723C281.703 95.3843 281.455 94.6721 282.22 93.211L277.79 90.8924ZM283.381 102.756C285.885 103.83 288.322 103.837 290.509 102.972C292.625 102.135 294.308 100.564 295.584 98.8075C298.107 95.3362 299.474 90.5535 299.474 86.7301H294.474C294.474 89.5826 293.393 93.3176 291.539 95.8683C290.628 97.1229 289.64 97.9387 288.67 98.3226C287.77 98.6786 286.703 98.7402 285.352 98.1607L283.381 102.756ZM298.909 77.2898C300.587 75.2377 303.388 74.1203 306.593 73.6601C309.749 73.2067 312.891 73.4537 314.701 73.7458L315.498 68.8097C313.337 68.461 309.669 68.167 305.882 68.7109C302.142 69.248 297.866 70.6659 295.038 74.1251L298.909 77.2898ZM314.701 73.7458C316.519 74.0393 318.659 75.2728 320.375 77.1251C322.096 78.9835 323.059 81.1031 323.059 82.8773H328.059C328.059 79.4395 326.299 76.1638 324.043 73.7277C321.781 71.2854 318.691 69.3252 315.498 68.8097L314.701 73.7458ZM323.059 82.8773C323.059 83.7997 322.639 84.6133 321.519 85.427C320.334 86.2883 318.555 86.9846 316.397 87.4852C312.095 88.4832 307.149 88.5132 304.906 88.2727L304.373 93.2442C307.097 93.5362 312.611 93.4963 317.527 92.3558C319.978 91.7871 322.497 90.8971 324.459 89.4717C326.486 87.9988 328.059 85.8254 328.059 82.8773H323.059ZM304.906 88.2727C301.656 87.9242 299.848 86.9467 299.346 85.439L294.602 87.0191C296.152 91.6748 301.047 92.8876 304.373 93.2442L304.906 88.2727ZM308.755 61.9426C314.733 55.9596 316.93 53.9098 321.235 50.1159L317.929 46.3648C313.53 50.2422 311.255 52.3668 305.218 58.4084L308.755 61.9426ZM321.235 50.1159C323.642 47.9946 325.886 47.0146 327.826 46.9398C329.674 46.8685 331.647 47.6023 333.659 49.7765L337.329 46.3809C334.517 43.3419 331.202 41.8059 327.633 41.9435C324.157 42.0775 320.856 43.7848 317.929 46.3648L321.235 50.1159ZM333.659 49.7765C336.43 52.7711 335.99 57.8724 332.882 60.5826L336.168 64.3512C341.215 59.95 342.177 51.6211 337.329 46.3809L333.659 49.7765ZM332.882 60.5826C332.676 60.7619 331.783 61.3985 330.327 62.35C328.941 63.2556 327.194 64.3508 325.413 65.4066C323.625 66.4663 321.838 67.4654 320.364 68.1917C319.624 68.5561 319.002 68.8322 318.52 69.0116C317.953 69.2229 317.84 69.1992 318.001 69.1992V74.1992C318.807 74.1992 319.649 73.9265 320.265 73.6971C320.967 73.4358 321.756 73.0795 322.573 72.6772C324.212 71.8699 326.123 70.7981 327.962 69.7077C329.808 68.6134 331.617 67.4796 333.062 66.5356C334.436 65.6375 335.648 64.804 336.168 64.3512L332.882 60.5826ZM288.039 43.7587C286.638 41.6553 284.437 40.3196 282.177 39.5C279.895 38.6727 277.341 38.2909 274.913 38.2368C272.486 38.1826 270.065 38.4537 268.028 39.0193C266.148 39.5412 264.01 40.4728 262.89 42.1811L267.071 44.923C267.066 44.9312 267.092 44.8895 267.185 44.8094C267.279 44.7298 267.421 44.6281 267.624 44.5137C268.038 44.2813 268.619 44.0442 269.365 43.837C270.859 43.4224 272.783 43.1905 274.802 43.2355C276.822 43.2805 278.816 43.5999 280.473 44.2005C282.15 44.8088 283.277 45.6278 283.878 46.5307L288.039 43.7587ZM262.89 42.1811C260.59 45.6881 260.628 49.2462 262.189 52.4285C263.655 55.4171 266.399 57.9703 269.342 60.075C275.266 64.3117 283.069 67.4678 287.054 69.0187L288.868 64.3592C284.867 62.8019 277.606 59.8383 272.25 56.008C269.553 54.0791 267.603 52.1119 266.678 50.2264C265.848 48.5345 265.798 46.8647 267.071 44.923L262.89 42.1811ZM295.969 71.1982C295.969 66.892 295.537 58.4316 296.649 50.8297C297.204 47.0305 298.114 43.7156 299.493 41.3665C300.824 39.0977 302.444 37.9383 304.557 37.8018L304.235 32.8122C300.005 33.0853 297.087 35.5865 295.18 38.8359C293.321 42.005 292.292 46.0658 291.701 50.1064C290.52 58.1842 290.969 67.2598 290.969 71.1982H295.969ZM304.557 37.8018C306.293 37.6897 307.439 37.8672 308.237 38.2614C308.944 38.6108 309.646 39.2632 310.225 40.7441L314.882 38.9233C313.942 36.5182 312.485 34.7833 310.452 33.7789C308.511 32.8194 306.338 32.6765 304.235 32.8122L304.557 37.8018ZM310.225 40.7441C311.122 43.0367 310.481 46.4113 308.771 50.4484C307.097 54.3989 304.831 58.067 303.273 61.0106L307.693 63.3487C309.036 60.8104 311.594 56.6026 313.375 52.3991C315.119 48.2822 316.564 43.2248 314.882 38.9233L310.225 40.7441ZM13.6795 163.51C13.6795 164.237 13.5523 165.34 13.3237 166.866C13.2124 167.609 13.0836 168.412 12.9448 169.282C12.8069 170.147 12.6602 171.071 12.5172 172.034C11.9483 175.86 11.413 180.43 11.6777 184.838C11.9411 189.223 13.0123 193.762 15.9395 197.259C18.9448 200.851 23.5773 202.961 30.1209 203.085L30.2153 198.086C24.7582 197.983 21.6416 196.282 19.7739 194.05C17.8281 191.725 16.9023 188.428 16.6687 184.538C16.4365 180.672 16.9043 176.526 17.4628 172.769C17.6016 171.835 17.7445 170.934 17.8824 170.07C18.0196 169.21 18.1529 168.379 18.2685 167.607C18.4937 166.104 18.6795 164.657 18.6795 163.51H13.6795ZM30.1209 203.085C44.1592 203.35 58.2066 203.813 72.371 203.813V198.813C58.2677 198.813 44.3487 198.352 30.2153 198.086L30.1209 203.085ZM72.371 203.813C77.4421 203.813 83.6138 203.266 88.6022 200.942C91.1309 199.764 93.448 198.088 95.1301 195.709C96.8281 193.309 97.7696 190.347 97.7696 186.803H92.7696C92.7696 189.417 92.0909 191.348 91.048 192.822C89.9892 194.319 88.4448 195.5 86.491 196.41C82.5143 198.262 77.2366 198.813 72.371 198.813V203.813ZM97.7696 186.803C97.7696 184.722 97.5154 180.418 97.2716 175.846C97.0238 171.199 96.7807 166.188 96.7807 162.508H91.7807C91.7807 166.344 92.0321 171.487 92.2787 176.112C92.5293 180.811 92.7696 184.898 92.7696 186.803H97.7696ZM18.7064 155.983C16.4915 157.607 14.8769 159.335 14.1223 161.24C13.3006 163.315 13.6117 165.315 14.68 166.995C15.6646 168.544 17.2305 169.741 18.8632 170.68C20.5315 171.64 22.4861 172.452 24.4924 173.139C28.507 174.514 33.0015 175.48 36.4457 176.1C38.1777 176.412 39.6649 176.64 40.7215 176.791C41.2501 176.866 41.6718 176.922 41.9635 176.959C42.1093 176.978 42.2227 176.992 42.3008 177.001C42.3398 177.006 42.37 177.01 42.391 177.012C42.4015 177.013 42.4097 177.014 42.4156 177.015C42.4185 177.015 42.4209 177.016 42.4226 177.016C42.4235 177.016 42.4244 177.016 42.4248 177.016C42.4256 177.016 42.4261 177.016 42.7141 174.533C43.002 172.05 43.0023 172.05 43.0024 172.05C43.0022 172.05 43.0022 172.05 43.0019 172.05C43.0013 172.049 43.0001 172.049 42.9984 172.049C42.9948 172.049 42.9889 172.048 42.9808 172.047C42.9645 172.045 42.9392 172.042 42.905 172.038C42.8368 172.03 42.7337 172.017 42.5984 172C42.328 171.965 41.9295 171.912 41.4258 171.84C40.4179 171.697 38.9925 171.479 37.3318 171.18C33.9905 170.578 29.7792 169.665 26.1125 168.409C24.2782 167.781 22.6483 167.089 21.3563 166.346C20.0287 165.583 19.2585 164.877 18.8994 164.313C18.624 163.879 18.5836 163.554 18.771 163.081C19.0254 162.439 19.7803 161.396 21.6634 160.015L18.7064 155.983ZM42.7141 174.533C42.5903 177.03 42.5908 177.03 42.5915 177.03C42.5919 177.03 42.5928 177.03 42.5937 177.03C42.5954 177.03 42.5978 177.03 42.6008 177.03C42.6068 177.031 42.6152 177.031 42.626 177.032C42.6476 177.033 42.6788 177.034 42.7194 177.036C42.8007 177.039 42.9193 177.044 43.0733 177.05C43.3812 177.062 43.8304 177.078 44.4036 177.094C45.5497 177.125 47.1928 177.154 49.1942 177.15C53.1924 177.142 58.6428 177 64.4281 176.458C70.1984 175.918 76.3852 174.974 81.8238 173.333C87.1843 171.716 92.2075 169.31 95.2226 165.584L91.336 162.439C89.2824 164.976 85.4505 167.016 80.3796 168.546C75.3869 170.053 69.566 170.956 63.9621 171.48C58.3733 172.003 53.0832 172.143 49.1843 172.15C47.2373 172.154 45.6428 172.125 44.5384 172.095C43.9863 172.081 43.557 172.066 43.2678 172.054C43.1232 172.049 43.0136 172.044 42.9412 172.041C42.905 172.039 42.8781 172.038 42.8608 172.037C42.8522 172.037 42.8459 172.036 42.8421 172.036C42.8401 172.036 42.8388 172.036 42.8381 172.036C42.8378 172.036 42.8377 172.036 42.8375 172.036C42.8376 172.036 42.8378 172.036 42.7141 174.533ZM95.2226 165.584C96.5888 163.896 97.3584 161.937 96.8784 159.87C96.4236 157.911 94.9893 156.52 93.5254 155.552C90.6153 153.626 86.0896 152.388 81.7154 151.548C77.2359 150.687 72.5118 150.174 68.9321 149.876C67.1366 149.726 65.6168 149.629 64.5437 149.57C64.007 149.54 63.5814 149.52 63.2883 149.507C63.1417 149.501 63.0282 149.496 62.9505 149.493C62.9116 149.491 62.8817 149.49 62.861 149.489C62.8507 149.489 62.8427 149.489 62.837 149.488C62.8342 149.488 62.8319 149.488 62.8303 149.488C62.8295 149.488 62.8287 149.488 62.8283 149.488C62.8276 149.488 62.8271 149.488 62.7398 151.987C62.6525 154.485 62.6523 154.485 62.6523 154.485C62.6525 154.485 62.6526 154.485 62.6529 154.485C62.6537 154.485 62.655 154.485 62.6569 154.485C62.6607 154.485 62.6669 154.486 62.6753 154.486C62.6922 154.487 62.7183 154.488 62.7533 154.489C62.8233 154.492 62.9286 154.496 63.0668 154.502C63.3432 154.514 63.7506 154.534 64.2679 154.562C65.3029 154.62 66.7754 154.713 68.5168 154.858C72.0107 155.15 76.5385 155.645 80.7719 156.458C85.1107 157.292 88.7589 158.394 90.7664 159.722C91.7613 160.38 91.9717 160.844 92.008 161.001C92.019 161.048 92.1259 161.463 91.336 162.439L95.2226 165.584ZM62.7398 151.987C62.856 149.489 62.8556 149.489 62.855 149.489C62.8547 149.489 62.854 149.489 62.8533 149.489C62.8519 149.489 62.8501 149.489 62.8477 149.489C62.843 149.489 62.8363 149.488 62.8277 149.488C62.8105 149.487 62.7855 149.486 62.7531 149.485C62.6883 149.482 62.5935 149.478 62.4703 149.473C62.2241 149.464 61.8644 149.451 61.4047 149.438C60.4854 149.411 59.165 149.381 57.5501 149.369C54.3235 149.345 49.9059 149.393 45.155 149.679C40.4138 149.965 35.2857 150.491 30.6556 151.44C26.0975 152.374 21.7178 153.775 18.7064 155.983L21.6633 160.015C23.7759 158.466 27.2775 157.236 31.6593 156.338C35.969 155.455 40.839 154.948 45.4556 154.67C50.0624 154.392 54.3622 154.346 57.5133 154.369C59.0873 154.381 60.371 154.41 61.2585 154.436C61.7022 154.449 62.0467 154.461 62.2787 154.47C62.3946 154.474 62.4825 154.478 62.5405 154.48C62.5696 154.481 62.5912 154.482 62.6051 154.483C62.612 154.483 62.6171 154.484 62.6202 154.484C62.6217 154.484 62.6228 154.484 62.6234 154.484C62.6237 154.484 62.6237 154.484 62.6239 154.484C62.6238 154.484 62.6236 154.484 62.7398 151.987ZM56.6596 161.383C56.6596 149.262 54.6945 133.636 52.7305 118.234C50.7526 102.723 48.7754 87.4361 48.6491 75.6806L43.6494 75.7343C43.7795 87.848 45.8075 103.471 47.7707 118.866C49.7477 134.371 51.6596 149.648 51.6596 161.383H56.6596ZM48.6491 75.6806C48.6231 73.2655 48.3603 70.5385 48.1193 67.9595C47.8728 65.3218 47.6479 62.8287 47.6479 60.6765H42.6479C42.6479 63.1043 42.8991 65.8369 43.141 68.4247C43.3883 71.0713 43.6261 73.5698 43.6494 75.7343L48.6491 75.6806ZM47.4513 59.7048C38.2029 37.7838 41.101 24.4486 42.5436 18.519L37.6853 17.337C36.0661 23.9923 33.0685 38.4767 42.8446 61.6483L47.4513 59.7048ZM42.5436 18.519C43.0561 16.4123 43.7897 14.2777 44.603 12.0664C45.3998 9.89971 46.3003 7.59076 47.0499 5.34019L42.3061 3.76014C41.5886 5.91427 40.7547 8.04434 39.9103 10.3405C39.0822 12.592 38.2675 14.9439 37.6853 17.337L42.5436 18.519ZM47.0499 5.34019C47.231 4.79645 47.3251 4.6811 47.2717 4.75449C47.2456 4.79035 47.0527 5.0573 46.6414 5.26569C46.1281 5.52575 45.4494 5.59917 44.8034 5.33297C44.2762 5.11577 44.0157 4.7714 43.9489 4.67793C43.8661 4.56203 43.8491 4.5012 43.8735 4.56149C43.9215 4.68058 44.0065 4.95695 44.1023 5.44143C44.4881 7.39291 44.7223 10.9616 44.7223 14.7755H49.7223C49.7223 10.8802 49.4906 6.91581 49.0073 4.47167C48.8859 3.85725 48.7284 3.23082 48.5098 2.68947C48.4008 2.41954 48.2445 2.08908 48.0163 1.76993C47.8042 1.47321 47.3924 0.991965 46.7082 0.710048C45.9052 0.379138 45.0636 0.460004 44.3817 0.805447C43.8018 1.09923 43.4348 1.52951 43.2289 1.81244C42.8159 2.37996 42.5281 3.09365 42.3061 3.76014L47.0499 5.34019ZM44.7246 14.6683C44.1594 27.8391 42.6479 47.133 42.6479 60.6765H47.6479C47.6479 47.2532 49.1408 28.3801 49.72 14.8827L44.7246 14.6683ZM47.4857 61.5626C50.2773 54.1972 51.4346 49.963 52.2723 46.4809C53.1037 43.0252 53.5681 40.5607 55.0156 36.4565L50.3002 34.7935C48.7438 39.2069 48.2069 42.0032 47.411 45.3114C46.6215 48.5932 45.5258 52.626 42.8102 59.7905L47.4857 61.5626ZM55.0156 36.4565C56.5968 31.9729 58.0045 28.8057 59.1899 26.7024C59.7828 25.6505 60.2919 24.9153 60.7043 24.4293C61.1402 23.9156 61.3557 23.8142 61.3233 23.8289C61.1978 23.886 60.7183 24.009 60.2092 23.7169C59.842 23.5063 59.8318 23.2821 59.9425 23.5623C60.1615 24.1168 60.3533 25.3761 60.2396 27.3878C59.7895 35.3501 54.9304 49.9727 43.6209 58.6971L46.675 62.656C59.3966 52.8423 64.7205 36.7124 65.2316 27.67C65.3582 25.4306 65.214 23.298 64.5929 21.7255C64.2835 20.9423 63.7272 19.9707 62.697 19.3798C61.5247 18.7074 60.2652 18.8169 59.2517 19.2783C58.3313 19.6972 57.5509 20.4177 56.8919 21.1942C56.2095 21.9984 55.5248 23.0219 54.834 24.2475C53.4521 26.6995 51.933 30.1638 50.3002 34.7935L55.0156 36.4565ZM37.6687 38.9623C30.2756 43.1597 20.6667 49.7904 14.1271 55.2066L17.3164 59.0574C23.6306 53.8278 32.9983 47.3635 40.1373 43.3104L37.6687 38.9623ZM14.1271 55.2066C12.8468 56.267 11.8609 57.2111 11.2298 58.054C10.9195 58.4683 10.5831 59.0035 10.4043 59.6312C10.2123 60.3053 10.1611 61.2801 10.7619 62.1946C11.3131 63.0335 12.1238 63.3685 12.6251 63.5082C13.1494 63.6543 13.6746 63.6841 14.1037 63.6802C14.9717 63.6721 15.9672 63.5152 16.928 63.3145C20.7472 62.5167 26.2148 60.5263 27.5817 60.0683L25.993 55.3274C24.3624 55.8738 19.3456 57.7015 15.9056 58.4202C15.0516 58.5986 14.4338 58.6769 14.0576 58.6804C13.8646 58.6822 13.8599 58.6618 13.9674 58.6917C14.052 58.7153 14.5591 58.8683 14.9407 59.4491C15.372 60.1056 15.2855 60.7465 15.213 61.0008C15.1538 61.2087 15.0919 61.2381 15.2322 61.0508C15.5021 60.6903 16.1209 60.0475 17.3164 59.0574L14.1271 55.2066ZM27.5817 60.0683C31.3116 58.8184 35.0055 57.5764 38.7254 56.4044L37.2229 51.6355C33.4511 52.8238 29.7108 54.0816 25.993 55.3274L27.5817 60.0683ZM38.7254 56.4044C39.2151 56.2501 39.6935 56.0766 40.0152 55.9632C40.1895 55.9017 40.3088 55.861 40.3935 55.8345C40.5165 55.7961 40.4421 55.828 40.2815 55.8485C40.2354 55.8544 39.8948 55.9037 39.4596 55.7973C39.22 55.7387 38.8142 55.6001 38.422 55.2532C37.9866 54.868 37.7083 54.348 37.6203 53.792C37.4768 52.8851 37.8873 52.2443 37.9232 52.1845C38.0275 52.0104 38.1231 51.9073 38.1313 51.8983C38.1352 51.894 37.9611 52.063 37.3532 52.5433L40.4528 56.4666C41.0041 56.0311 41.5123 55.6126 41.833 55.2595C41.9203 55.1633 42.0723 54.9878 42.2118 54.755C42.283 54.6363 42.7076 53.9503 42.5588 53.0103C42.4682 52.4377 42.1824 51.9041 41.7349 51.5082C41.3307 51.1506 40.9081 51.0042 40.6474 50.9404C40.17 50.8237 39.7695 50.8733 39.6476 50.8889C39.3355 50.9288 39.0459 51.0173 38.9041 51.0615C38.7239 51.1177 38.5287 51.1856 38.3528 51.2477C37.9739 51.3812 37.6086 51.514 37.2229 51.6355L38.7254 56.4044ZM37.3532 52.5433C32.2081 56.6084 27.9879 61.6927 24.1638 66.636L28.1186 69.6954C31.9029 64.8036 35.8144 60.1313 40.4528 56.4666L37.3532 52.5433ZM24.1638 66.636C22.7718 68.4354 20.8083 70.8364 19.1447 73.3588C17.4944 75.861 15.9231 78.7899 15.4711 81.7755L20.4148 82.524C20.7007 80.6355 21.779 78.446 23.3187 76.1116C24.845 73.7973 26.6116 71.6433 28.1186 69.6954L24.1638 66.636ZM15.4711 81.7755C15.2789 83.0449 15.4 84.4719 16.3467 85.617C17.2764 86.7414 18.5636 87.0588 19.4888 87.1289C21.251 87.2623 23.1959 86.6175 24.233 86.2283L22.4762 81.547C22.0258 81.7161 21.5069 81.8868 21.0016 82.0042C20.4719 82.1272 20.0887 82.16 19.8663 82.1431C19.6282 82.1251 19.9141 82.0849 20.2002 82.431C20.5034 82.7977 20.3388 83.0256 20.4148 82.524L15.4711 81.7755ZM24.233 86.2283C27.9046 84.8504 32.3636 83.3089 36.5456 80.0174C40.7928 76.6746 44.6175 71.6585 47.5045 63.5161L42.792 61.8451C40.1719 69.2346 36.8507 73.4143 33.4533 76.0883C29.9908 78.8135 26.3065 80.1096 22.4762 81.547L24.233 86.2283ZM42.5431 60.677C42.453 63.1094 43.141 65.8834 44.2329 68.4712C45.3371 71.088 46.9381 73.7143 48.8727 75.8557C50.7827 77.9697 53.1877 79.7958 55.9381 80.4643C58.8446 81.1708 61.8421 80.5062 64.5023 78.1666L61.2003 74.4121C59.7129 75.7202 58.3745 75.9109 57.119 75.6058C55.7074 75.2627 54.1244 74.2101 52.5828 72.5038C51.0659 70.8248 49.7518 68.6891 48.8396 66.5274C47.9153 64.3366 47.4858 62.3156 47.5396 60.8619L42.5431 60.677ZM64.5023 78.1666C66.7024 76.2318 68.0452 74.0376 68.5239 71.6719C69.0001 69.3189 68.5709 67.0463 67.6689 65.0266C65.9042 61.0752 62.2021 57.7684 58.6597 55.7005L56.1389 60.0185C59.1544 61.7789 61.9139 64.4018 63.1035 67.0655C63.6787 68.3534 63.85 69.5599 63.6232 70.6802C63.3991 71.7879 62.7359 73.0616 61.2003 74.4121L64.5023 78.1666ZM41.1398 26.1055C41.1398 24.0151 39.9212 22.3609 38.6737 21.2247C37.385 20.0509 35.7212 19.1022 34.0398 18.3969C32.344 17.6856 30.5032 17.1687 28.7788 16.9288C27.122 16.6984 25.2831 16.6821 23.7547 17.2473L25.4887 21.937C25.883 21.7912 26.7578 21.6959 28.0899 21.8812C29.3545 22.0571 30.7778 22.4507 32.1058 23.0078C33.4483 23.5709 34.5679 24.2482 35.3068 24.9212C36.0868 25.6316 36.1398 26.0449 36.1398 26.1055H41.1398ZM23.7547 17.2473C20.528 18.4404 16.7096 20.6366 14.5801 23.9336C13.478 25.64 12.8121 27.6748 12.992 29.9605C13.1705 32.2282 14.162 34.5012 15.9471 36.7431L19.8586 33.6286C18.5325 31.9632 18.0586 30.6105 17.9766 29.5682C17.896 28.5439 18.1743 27.5845 18.7802 26.6464C20.0667 24.6545 22.7188 22.9612 25.4887 21.937L23.7547 17.2473ZM15.9471 36.7431C16.8966 37.9355 18.2265 38.9488 19.5787 39.8047C20.9576 40.6774 22.5151 41.482 24.0444 42.2113C25.5742 42.9409 27.1382 43.6242 28.5115 44.2325C29.9177 44.8554 31.0904 45.3852 31.9556 45.8471L34.31 41.436C33.255 40.8729 31.9114 40.2699 30.5365 39.6609C29.1287 39.0373 27.6466 38.3897 26.1967 37.6982C24.7461 37.0064 23.3901 36.2997 22.2527 35.5798C21.0887 34.8431 20.2997 34.1825 19.8586 33.6286L15.9471 36.7431ZM49.5405 20.3268C51.4454 14.1312 53.3972 11.392 55.4387 9.32344L51.8799 5.8113C49.1824 8.54456 46.8616 12.0262 44.7613 18.8574L49.5405 20.3268ZM55.4387 9.32344C55.4387 9.32346 55.4393 9.32283 55.4406 9.32154C55.4419 9.32025 55.4438 9.3184 55.4463 9.31596C55.4515 9.31104 55.4587 9.30423 55.4683 9.2955C55.4876 9.27782 55.514 9.25455 55.5481 9.22569C55.6169 9.16744 55.7078 9.09446 55.8219 9.00814C56.0505 8.83508 56.3479 8.62654 56.7035 8.39754C57.4164 7.93847 58.3166 7.42708 59.2932 6.97478C61.3921 6.00278 63.2883 5.56428 64.4586 5.81325C64.9212 5.91165 65.2078 6.10115 65.4337 6.43041C65.7003 6.81882 66.0266 7.62284 66.059 9.19144C66.1252 12.3888 64.9584 17.8413 61.3576 26.6639L65.9869 28.5533C69.6454 19.5893 71.1462 13.35 71.058 9.08797C71.0132 6.92687 70.5569 5.05928 69.5564 3.60137C68.5154 2.08433 67.0508 1.25281 65.4991 0.922692C62.6408 0.314633 59.4563 1.3891 57.1921 2.43769C54.8781 3.50931 52.7552 4.92435 51.8799 5.8113L55.4387 9.32344ZM70.5533 50.9942C75.3613 49.201 78.6516 50.5716 80.1239 52.4351C81.5713 54.2671 81.8718 57.3205 79.1777 60.4237L82.9533 63.7016C86.9978 59.043 87.1868 53.3093 84.0472 49.3355C80.9326 45.3932 75.1607 43.9393 68.806 46.3094L70.5533 50.9942ZM79.1777 60.4237C77.5376 62.3127 72.9593 65.5628 67.0296 64.715L66.322 69.6647C74.4104 70.8211 80.5578 66.4607 82.9533 63.7016L79.1777 60.4237ZM64.6013 32.2034C67.78 28.3406 71.0224 26.6427 73.8582 26.0122C76.7341 25.3727 79.3891 25.7892 81.3932 26.4689L82.9991 21.7338C80.3464 20.8341 76.7433 20.2486 72.773 21.1314C68.7627 22.023 64.5709 24.3715 60.7405 29.0263L64.6013 32.2034ZM81.3932 26.4689C82.7058 26.914 84.1699 28.5044 85.0711 30.9199C85.9663 33.3192 85.973 35.6593 85.3462 36.9904L89.8697 39.1206C91.2831 36.1191 90.9122 32.2719 89.7557 29.172C88.6051 26.0884 86.3432 22.868 82.9991 21.7338L81.3932 26.4689ZM85.3462 36.9904C84.5306 38.7223 83.0741 40.2044 81.1662 41.6171C79.2093 43.0661 77.1294 44.2071 74.9743 45.5551L77.6257 49.7941C79.4714 48.6397 81.9783 47.2373 84.1416 45.6354C86.3539 43.9973 88.551 41.921 89.8697 39.1206L85.3462 36.9904ZM19.7327 33.8904C16.6957 32.3707 13.3712 32.0378 10.2565 32.9942C7.14499 33.9496 4.42561 36.1337 2.46483 39.3273L6.72578 41.9434C8.13329 39.651 9.92002 38.3279 11.7242 37.7739C13.5252 37.2209 15.5258 37.3763 17.4953 38.3618L19.7327 33.8904ZM2.46483 39.3273C0.737852 42.14 0.0528438 44.9035 0.795615 47.4593C1.53395 49.9999 3.49574 51.6862 5.61961 52.7737C9.78578 54.907 15.8451 55.4148 20.748 55.1566L20.485 50.1635C15.8754 50.4063 10.8846 49.8523 7.89848 48.3232C6.44622 47.5796 5.80636 46.7845 5.59697 46.064C5.39201 45.3587 5.41319 44.0812 6.72577 41.9434L2.46483 39.3273Z" fill="#F5F5F5"/>
</svg>
