<svg width="1920" height="1080" viewBox="0 0 1920 1080" fill="none" xmlns="http://www.w3.org/2000/svg">
<g clip-path="url(#clip0_66_119)">
<rect width="1920" height="1080" fill="white"/>
<path d="M119.145 148V0.0361328H75.668V58.0732C75.668 58.0732 70.0283 64.7383 53.0068 64.7383C37.0107 64.7383 28.7051 56.3301 28.7051 40.7441V0.0361328H-14.7715V45.5635C-14.7715 78.6836 6.35156 100.832 41.7275 100.832C63.1582 100.832 74.8477 92.9365 74.8477 92.9365H75.668V148H119.145ZM218.505 148V34.5918H257.47V0.0361328H136.063V34.5918H175.028V148H218.505ZM340.219 -2.52734C294.486 -2.52734 265.673 26.7988 265.673 74.0693C265.673 121.34 294.384 150.563 340.219 150.563C385.951 150.563 414.765 121.34 414.765 74.0693C414.765 26.7988 385.951 -2.52734 340.219 -2.52734ZM340.219 32.1309C358.368 32.1309 370.468 48.4346 370.468 74.0693C370.468 99.6016 358.471 115.905 340.219 115.905C321.967 115.905 309.97 99.6016 309.97 74.0693C309.97 48.4346 322.069 32.1309 340.219 32.1309ZM641.171 148V0.0361328H590.927L557.909 86.374H557.089L523.969 0.0361328H473.725V148H511.664V62.2773H512.484L545.81 146.257H569.086L602.411 62.2773H603.231V148H641.171ZM734.789 -2.52734C689.057 -2.52734 660.243 26.7988 660.243 74.0693C660.243 121.34 688.954 150.563 734.789 150.563C780.521 150.563 809.335 121.34 809.335 74.0693C809.335 26.7988 780.521 -2.52734 734.789 -2.52734ZM734.789 32.1309C752.938 32.1309 765.038 48.4346 765.038 74.0693C765.038 99.6016 753.041 115.905 734.789 115.905C716.537 115.905 704.54 99.6016 704.54 74.0693C704.54 48.4346 716.64 32.1309 734.789 32.1309ZM871.781 148V34.4893H931.254V0.0361328H828.305V148H871.781ZM979.14 149.641C1010.11 149.641 1024.97 133.029 1036.77 105.651L1082.09 0.0361328H1036.05L1013.29 68.6348H1012.46L987.548 0.0361328H941.508L989.188 109.035C984.677 114.367 978.627 115.188 971.654 115.188C964.271 115.188 961.811 114.162 961.811 114.162V148C961.811 148 969.809 149.641 979.14 149.641Z" fill="#F5F5F5"/>
</g>
<defs>
<clipPath id="clip0_66_119">
<rect width="1920" height="1080" fill="white"/>
</clipPath>
</defs>
</svg>
